<svg height="250" viewBox="0 0 250 250" width="250" xmlns="http://www.w3.org/2000/svg" xmlns:xlink="http://www.w3.org/1999/xlink"><clipPath id="a"><path clip-rule="evenodd" d="m125.002124 22.229181c62.091253 0 112.426403 50.335139 112.426403 112.426392 0 37.391957-18.259522 70.514088-46.342729 90.953869h-132.167015c-28.083367-20.439781-46.342684-53.561912-46.342684-90.953869 0-62.091253 50.334772-112.426392 112.426025-112.426392z"/></clipPath><path d="m125.002121 22.229187c62.091248 0 112.426407 50.335129 112.426407 112.426392 0 37.391952-18.259522 70.514083-46.342728 90.953857h-132.167015c-28.083368-20.439774-46.342687-53.561905-46.342687-90.953857 0-62.091263 50.334775-112.426392 112.426023-112.426392z" fill="#97defc" fill-rule="evenodd"/><path d="m225.126434 50.325943-22.853714 23.037689 12.687302 3.17775-15.141556 60.099823-19.673004-21.416199-2.819031-4.101044-1.344055 5.139496-13.417663 59.055359-29.291993-44.864258-25.626701 85.550278 4.143013 2.778534 25.848938-59.683441 27.182404 27.961654 16.059021-57.794891 19.539947 22.509125 3.095459 3.998306 1.002823-5.920761 17.482376-71.853363 11 3.72728z" fill="#008000"/><g fill-rule="evenodd"><g clip-path="url(#a)"><path d="m108.906174 185.433975 3.402054 6.388336c2.394805 4.496247 2.514656 9.860672.324417 14.459443l2.105537 19.600418h-38.917877-38.917877l2.105907-19.600418c-2.190231-4.598771-2.07019-9.963196.323864-14.459443l3.402237-6.388336z" fill="#1a1a1a"/><path d="m111.944626 187.73999c-7.931633 5.970352-23.020996 6.975388-36.124321 6.975388-13.103329 0-28.192501-1.005036-36.123562-6.975388v-11.588165h72.247883z" fill="#633"/><path d="m65.849731 183.882919h19.94114v12.204087c-6.590721 1.067916-13.232277 1.171859-19.94114 0 0-4.067917 0-8.135804 0-12.204087z" fill="#ccc"/><path d="m97.156708 181.589508c1.672729-.480148 3.345825-.960693 5.018562-1.441177.448708 4.488479.435371 8.915573 0 13.28569-1.672737.480499-3.345833.961014-5.018562 1.441513.383972-4.455917.440948-8.888946 0-13.286026zm-42.672467 0c-1.672916-.480148-3.345829-.960693-5.018749-1.441177-.448864 4.488479-.435379 8.915573 0 13.28569 1.67292.480499 3.345833.961014 5.018749 1.441513-.384311-4.455917-.441284-8.888946 0-13.286026z" fill="#1a1a1a"/><path d="m89.084892 83.738861 5.836441 6.190079 16.978516 8.13562c9.184135 4.400635 14.316635 14.37616 12.55735 24.406845l8.842697 26.971054c-4.981598 6.64209-12.393837 11.160202-21.222862 12.291748l2.652626 6.720871c1.391968 3.525635.354012 7.597229-2.652626 9.903977-7.895363 6.058731-23.080551 7.07492-36.256729 7.07492-13.176216 0-28.36137-1.016189-36.256363-7.07492-3.00663-2.306748-4.04459-6.378342-2.652996-9.903977l2.652996-6.720871c-8.829395-1.131546-16.241633-5.649658-21.223221-12.291748l8.842878-26.971054c-1.759094-10.030685 3.373219-20.00621 12.557158-24.406845l16.978481-8.13562 5.836624-6.190079z" fill="#fff"/><path d="m75.820305 181.120453-12.594319-20.010681 10.084836-63.405716-1.913361-3.314026 1.662384-5.653885 2.76046.822495 2.760261-.822495 1.662384 5.653885-1.912803 3.314026 10.084846 63.405716z" fill="#5656c4"/><path d="m24.707991 141.925537-3.802307 15.652344c16.70329 16.63855 46.103906 19.602661 73.927614 5.305984l-29.093407-14.855941-22.903904-1.945343-3.183262-1.592469c-4.619434-2.309723-9.819278-3.202316-14.944734-2.564575z" fill="#f63"/><path d="m74.006622 170.400833c6.893639-1.475235 13.908982-3.962509 20.826676-7.516968l-23.012856-11.751663-10.151619-3.450531-18.027721-1.531036-.357544.095047c9.011215 4.097488 18.436325 7.636825 24.31364 13.896072-5.535343 2.776886-17.518375 4.677124-24.761211 1.370484 7.617725 5.713287 18.101357 6.393188 25.99931-.132416 7.19622-.187927 10.589775 3.710205 5.171325 9.021011z" fill="#d93b07"/><path d="m89.969734 139.006927 9.815911-9.461547c.978401-.943116 2.267921-1.496277 3.625488-1.553826l2.520576-1.983452c.376587-.296653.875611-.389503 1.333908-.248405.458329.141136.818245.498451.962868.955681.422081 1.333725.084351 2.791336-.881851 3.802658l.881851 1.149689c.99099 1.290405.99099 3.085983 0 4.376983l-9.371284 7.074875z" fill="#d93b07"/><path d="m96.779022 137.415939 2.563851-.972488c9.023948-3.423157 19.223869-.925873 25.645118 6.278473l-5.305984 18.570618-4.421173 2.033752c-13.856072 6.373566-30.163567 4.019073-41.650948-6.01326l-30.773899-11.230453 1.149464-3.360657c.614815-1.797363 2.187313-3.095795 4.068111-3.360642 4.897045-.6884 9.764507-1.573196 14.590912-2.652984 2.006207-.448334 4.083256-.478287 6.101666-.088028z" fill="#f63"/><path d="m92.590141 50.091492c2.198769 1.024078 2.903458 4.166275 1.575135 7.017898-1.328759 2.851441-4.18705 4.333344-6.385422 3.309204-2.19838-1.024078-2.90342-4.165908-1.575089-7.017532 1.328369-2.851654 4.187401-4.333343 6.385376-3.30957zm-33.539913 0c-2.198177 1.024078-2.903412 4.166275-1.574886 7.017898 1.328369 2.851441 4.187389 4.333344 6.385387 3.309204 2.198399-1.024078 2.903439-4.165908 1.575062-7.017532-1.328522-2.851654-4.187344-4.333343-6.385563-3.30957z" fill="#d93b07"/><path d="m66.400726 61.575302-2.666862 23.750458 12.086441 2.348022 12.086807-2.348022-2.667412-23.750458-9.419395.115616z" fill="#f63"/><path d="m81.066742 86.654282 6.84037-1.328522-2.667412-23.750458-9.419395.115616-8.566742-.105042-1.103447 10.280137c-.523605 4.879333 2.032646 9.346527 6.504311 11.36737l5.704208 2.577332c.894424.40451 1.799232.685638 2.708107.843567z" fill="#d93b07"/><path d="m62.155453 40.103897-3.006062 28.001434c-.523636 4.878952 2.03265 9.346528 6.504288 11.367371l5.703819 2.57753c2.939507 1.32814 5.986099 1.32814 8.925759 0l5.704017-2.57753c4.471092-2.020843 7.027542-6.488419 6.504128-11.367371l-3.006249-28.001434-13.664848.194733z" fill="#f63"/><path d="m68.778145 70.662155c-.130043 1.975159.936973 3.761826 2.758209 4.584854l2.403679 1.085861c1.238487.559662 2.522423.559662 3.760872 0l2.403335-1.085861c1.821442-.823028 2.888604-2.609695 2.758034-4.584854z" fill="#fff"/><g fill="#333"><path d="m90.795723 52.307953 1.763359-7.872223c.685837-3.060471 1.073875-6.1801 1.159325-9.315277.031784-1.165375-.692841-2.217957-1.793335-2.603409-1.61541-.565979-3.281472-.973083-4.975678-1.21495l-.752395-1.446564c-.973587-1.872315-2.221657-3.588486-3.70279-5.091431-.722427-.733536-1.794433-1.001541-2.777282-.694321-7.769196 2.426957-15.039612 6.228898-21.465683 11.22435-.967297.75203-1.280453 2.076676-.751854 3.182343l3.266666 14.570587 2.056145-10.867599.911663 1.677734c.975265 1.794815 2.891403 2.874023 4.932197 2.777466 6.729958-.319046 13.303635-2.137345 19.241051-5.323181z"/><path d="m79.091789 51.18808-.024399 3.298096 4.59314-.186066c.246361-.013336.492004.064163.722801.22879l1.386437 1.191467.62664-1.420257c-.476829-1.218857-1.118263-2.168778-1.856224-2.749558-.351395-.276489-.728363-.41687-1.108978-.412262z"/><path d="m81.923439 60.743027c1.045013 0 1.897285-1.160599 1.897285-2.584 0-1.423035-.852272-2.583832-1.897285-2.583832-1.04538 0-1.897652 1.160797-1.897652 2.583832 0 1.423401.852272 2.584 1.897652 2.584z"/><path d="m72.549171 51.18808.024048 3.298096-4.592804-.186066c-.246894-.013336-.492157.064163-.723182.22879l-1.386208 1.191467-.626831-1.420257c.476631-1.218857 1.118233-2.168778 1.856415-2.749558.351394-.276489.728523-.41687 1.108787-.412262z"/><path d="m69.717682 60.743027c1.045189 0 1.897461-1.160599 1.897461-2.584 0-1.423035-.852272-2.583832-1.897461-2.583832-1.04496 0-1.897606 1.160797-1.897606 2.583832 0 1.423401.852646 2.584 1.897606 2.584z"/></g><path d="m75.820305 65.715714c1.690872 0 3.061745-.578324 3.061745-.013306 0 .565063-1.370873 3.509704-3.061745 3.509704-1.69088 0-3.061562-2.944641-3.061562-3.509704 0-.565018 1.370682.013306 3.061562.013306z" fill="#d93b07"/><path d="m98.276054 146.150635c-10.952644 0-21.85466-1.488892-32.40689-4.425247h2.965766c10.9375 0 21.823937 1.48851 32.359726 4.425247z" fill="#d93b07"/></g><path d="m90.795723 52.307953 1.763359-7.872223c.685837-3.060471 1.073875-6.1801 1.159325-9.315277.031784-1.165375-.692841-2.217957-1.793335-2.603409-1.61541-.565979-3.281472-.973083-4.975678-1.21495l-.752395-1.446564c-.973587-1.872315-2.221657-3.588486-3.70279-5.091431-.722427-.733536-1.794433-1.001541-2.777282-.694321-7.769196 2.426957-15.039612 6.228898-21.465683 11.22435-.967297.75203-1.280453 2.076676-.751854 3.182343l3.266666 14.570587 2.056145-10.867599.911663 1.677734c.975265 1.794815 2.891403 2.874023 4.932197 2.777466 6.729958-.319046 13.303635-2.137345 19.241051-5.323181z" fill="#333"/></g></svg>